<?xml version="1.0" encoding="UTF-8" standalone="no"?>
<!-- Created with Inkscape (http://www.inkscape.org/) -->

<svg
   xmlns:dc="http://purl.org/dc/elements/1.1/"
   xmlns:cc="http://creativecommons.org/ns#"
   xmlns:rdf="http://www.w3.org/1999/02/22-rdf-syntax-ns#"
   xmlns:svg="http://www.w3.org/2000/svg"
   xmlns="http://www.w3.org/2000/svg"
   xmlns:sodipodi="http://sodipodi.sourceforge.net/DTD/sodipodi-0.dtd"
   xmlns:inkscape="http://www.inkscape.org/namespaces/inkscape"
   width="11.061258mm"
   height="18.771893mm"
   viewBox="0 0 39.193435 66.51458"
   id="svg5253"
   version="1.1"
   inkscape:version="0.91 r13725"
   sodipodi:docname="apostello-icon.svg">
  <defs
     id="defs5255" />
  <sodipodi:namedview
     id="base"
     pagecolor="#ffffff"
     bordercolor="#666666"
     borderopacity="1.0"
     inkscape:pageopacity="0.0"
     inkscape:pageshadow="2"
     inkscape:zoom="11.2"
     inkscape:cx="-13.119939"
     inkscape:cy="41.147769"
     inkscape:document-units="px"
     inkscape:current-layer="layer1"
     showgrid="false"
     fit-margin-top="0"
     fit-margin-left="0"
     fit-margin-right="0"
     fit-margin-bottom="0"
     inkscape:window-width="1920"
     inkscape:window-height="1147"
     inkscape:window-x="-8"
     inkscape:window-y="-8"
     inkscape:window-maximized="1" />
  <metadata
     id="metadata5258">
    <rdf:RDF>
      <cc:Work
         rdf:about="">
        <dc:format>image/svg+xml</dc:format>
        <dc:type
           rdf:resource="http://purl.org/dc/dcmitype/StillImage" />
        <dc:title></dc:title>
      </cc:Work>
    </rdf:RDF>
  </metadata>
  <g
     inkscape:label="Layer 1"
     inkscape:groupmode="layer"
     id="layer1"
     transform="translate(-206.11758,-1084.819)">
    <path
       style="fill:#5b599c;fill-opacity:1;stroke:#5b599c;stroke-width:1px;stroke-linecap:butt;stroke-linejoin:miter;stroke-opacity:1"
       d="m 213.65235,1137.2257 c -1.46017,-0.064 -1.89049,-0.1296 -2.07534,-0.3145 -0.17961,-0.1796 -0.25915,-0.6438 -0.34613,-2.0199 -0.1304,-2.0632 -0.13317,-21.2603 -0.005,-32.3353 0.0812,-6.9979 0.10602,-7.5735 0.33643,-7.8038 0.23269,-0.2326 0.9534,-0.2554 11.14831,-0.3521 11.92647,-0.1131 16.83768,-0.01 17.20792,0.3599 0.35638,0.3563 0.43009,3.9666 0.43009,21.0646 0,17.2496 -0.0722,20.7069 -0.44023,21.0749 -0.18626,0.1862 -0.66068,0.2512 -2.42874,0.3325 -2.56418,0.1179 -21.12515,0.113 -23.82764,-0.01 l 0,0 z m 24.76585,-21.5432 0,-19.4427 -12.57669,0.092 c -6.91717,0.051 -12.58791,0.1 -12.60163,0.109 -0.0901,0.062 -0.0917,38.3712 -0.002,38.5104 0.0888,0.1372 2.77249,0.1742 12.64636,0.1742 l 12.53362,0 0,-19.4427 z"
       id="path4504"
       inkscape:connector-curvature="0"
       inkscape:export-xdpi="300"
       inkscape:export-ydpi="300" />
    <path
       style="fill:#5b599c;fill-opacity:1;stroke:#5b599c;stroke-width:1;stroke-linecap:butt;stroke-linejoin:miter;stroke-miterlimit:4;stroke-dasharray:none;stroke-opacity:1"
       d="m 209.61454,1150.7477 c -1.39451,-0.051 -2.58196,-0.1388 -2.63879,-0.1957 -0.2657,-0.2657 -0.36014,-8.854 -0.35814,-32.5674 0.002,-25.5702 0.0844,-32.0243 0.41238,-32.3522 0.40746,-0.4075 36.99183,-0.4227 37.39857,-0.016 0.32195,0.3222 0.37971,5.2121 0.38236,32.3678 0.003,26.7177 -0.0636,32.3277 -0.38524,32.6493 -0.1831,0.1831 -30.21473,0.2813 -34.81114,0.1138 z m 33.26298,-32.6237 0,-30.7972 -17.14052,0 -17.14052,0 0,30.7972 0,30.7972 17.14052,0 17.14052,0 0,-30.7972 z"
       id="path4506"
       inkscape:connector-curvature="0"
       inkscape:export-xdpi="300"
       inkscape:export-ydpi="300" />
    <path
       style="fill:#5b599c;fill-opacity:1;stroke:#5b599c;stroke-width:1;stroke-linecap:butt;stroke-linejoin:miter;stroke-miterlimit:4;stroke-dasharray:none;stroke-opacity:1"
       d="m 221.41703,1091.6659 c -0.3449,-0.053 -0.70548,-0.1452 -0.80128,-0.2052 -0.27542,-0.1725 -0.20445,-0.8582 0.11914,-1.151 0.27661,-0.2504 0.56939,-0.2655 5.13468,-0.2655 3.89858,0 4.88621,0.037 5.07178,0.1912 0.32052,0.2661 0.31119,1.2057 -0.0134,1.3524 -0.30751,0.1389 -8.66545,0.2076 -9.5109,0.078 z"
       id="path4508"
       inkscape:connector-curvature="0"
       inkscape:export-xdpi="300"
       inkscape:export-ydpi="300" />
    <circle
       style="fill:#000000;fill-opacity:0;stroke:#5b599c;stroke-width:2;stroke-linecap:butt;stroke-linejoin:miter;stroke-miterlimit:9.29999924;stroke-dasharray:none;stroke-opacity:1"
       id="path5178"
       cx="226.02052"
       cy="1142.9065"
       r="2.9561408"
       inkscape:export-xdpi="300"
       inkscape:export-ydpi="300" />
  </g>
</svg>
