<?xml version="1.0" encoding="UTF-8" standalone="no"?>
<!-- Created with Inkscape (http://www.inkscape.org/) -->

<svg
   xmlns:dc="http://purl.org/dc/elements/1.1/"
   xmlns:cc="http://creativecommons.org/ns#"
   xmlns:rdf="http://www.w3.org/1999/02/22-rdf-syntax-ns#"
   xmlns:svg="http://www.w3.org/2000/svg"
   xmlns="http://www.w3.org/2000/svg"
   xmlns:sodipodi="http://sodipodi.sourceforge.net/DTD/sodipodi-0.dtd"
   xmlns:inkscape="http://www.inkscape.org/namespaces/inkscape"
   width="200.875"
   height="200.84125"
   id="svg2"
   version="1.1"
   inkscape:version="0.91 r13725"
   sodipodi:docname="onebody-logo.svg">
  <defs
     id="defs4" />
  <sodipodi:namedview
     id="base"
     pagecolor="#ffffff"
     bordercolor="#666666"
     borderopacity="1.0"
     inkscape:pageopacity="0.0"
     inkscape:pageshadow="2"
     inkscape:zoom="0.99"
     inkscape:cx="-252.3222"
     inkscape:cy="143.11766"
     inkscape:document-units="px"
     inkscape:current-layer="layer1"
     showgrid="false"
     inkscape:window-width="1920"
     inkscape:window-height="1016"
     inkscape:window-x="1600"
     inkscape:window-y="27"
     inkscape:window-maximized="1"
     fit-margin-top="0"
     fit-margin-left="0"
     fit-margin-right="0"
     fit-margin-bottom="0" />
  <metadata
     id="metadata7">
    <rdf:RDF>
      <cc:Work
         rdf:about="">
        <dc:format>image/svg+xml</dc:format>
        <dc:type
           rdf:resource="http://purl.org/dc/dcmitype/StillImage" />
        <dc:title></dc:title>
      </cc:Work>
    </rdf:RDF>
  </metadata>
  <rect
     style="opacity:0.90517243;fill:#2c3e50;fill-opacity:1;stroke:none"
     id="rect5571"
     width="488.88889"
     height="442.42426"
     x="-623.12286"
     y="464.50647" />
  <g
     inkscape:label="Layer 1"
     inkscape:groupmode="layer"
     id="layer1"
     transform="translate(-368.57743,-408.05774)">
    <path
       style="fill:#2c3e50;fill-opacity:1;stroke:none"
       d="m 469.01493,408.05774 -4.53125,47.41423 -95.375,53.94465 -0.40625,0 0,0.22519 -0.125,0.0751 0.125,0 0,99.18208 64.5,0 0,-9.3077 c 14.26691,0 20.34375,-1.17321 20.34375,-13.43612 l 0,-69.20727 -16.5625,0 0,-9.40779 c 16.15518,-0.16799 31.25982,-3.86797 44.6875,-11.25931 0.41962,-0.33598 0.83038,-0.50758 1.25,-0.67557 1.25885,0 2.09375,0.32535 2.09375,1.50125 l 0,2.85235 0,86.69675 c 0,10.91904 5.24636,12.93571 17.625,12.93571 l 0,9.3077 66.59375,0 0,-99.18208 0.21875,0 -0.21875,-0.1251 0,-0.17515 -0.3125,0 -95.375,-53.94464 -4.53125,-47.41423 z"
       id="rect2985"
       inkscape:connector-curvature="0"
       inkscape:export-filename="/Users/timmorgan/pp/churchio-website/img/logo.png"
       inkscape:export-xdpi="179.22"
       inkscape:export-ydpi="179.22" />
  </g>
</svg>
