<?xml version="1.0" encoding="UTF-8" standalone="no"?>
<!-- Created with Inkscape (http://www.inkscape.org/) -->

<svg
   xmlns:dc="http://purl.org/dc/elements/1.1/"
   xmlns:cc="http://creativecommons.org/ns#"
   xmlns:rdf="http://www.w3.org/1999/02/22-rdf-syntax-ns#"
   xmlns:svg="http://www.w3.org/2000/svg"
   xmlns="http://www.w3.org/2000/svg"
   xmlns:sodipodi="http://sodipodi.sourceforge.net/DTD/sodipodi-0.dtd"
   xmlns:inkscape="http://www.inkscape.org/namespaces/inkscape"
   width="744.09448819"
   height="1052.3622047"
   id="svg2"
   version="1.1"
   inkscape:version="0.48.2 r9819"
   sodipodi:docname="logos.svg">
  <defs
     id="defs4" />
  <sodipodi:namedview
     id="base"
     pagecolor="#ffffff"
     bordercolor="#666666"
     borderopacity="1.0"
     inkscape:pageopacity="0.0"
     inkscape:pageshadow="2"
     inkscape:zoom="0.99"
     inkscape:cx="275.85119"
     inkscape:cy="588.60105"
     inkscape:document-units="px"
     inkscape:current-layer="layer1"
     showgrid="false"
     inkscape:window-width="1440"
     inkscape:window-height="796"
     inkscape:window-x="0"
     inkscape:window-y="0"
     inkscape:window-maximized="1" />
  <metadata
     id="metadata7">
    <rdf:RDF>
      <cc:Work
         rdf:about="">
        <dc:format>image/svg+xml</dc:format>
        <dc:type
           rdf:resource="http://purl.org/dc/dcmitype/StillImage" />
        <dc:title></dc:title>
      </cc:Work>
    </rdf:RDF>
  </metadata>
  <rect
     style="opacity:0.90517243;fill:#2c3e50;fill-opacity:1;stroke:none"
     id="rect5571"
     width="488.88889"
     height="442.42426"
     x="-254.54546"
     y="872.56421" />
  <g
     inkscape:label="Layer 1"
     inkscape:groupmode="layer"
     id="layer1">
    <path
       style="fill:#2c3e50;fill-opacity:1;stroke:none"
       d="m 469.01493,408.05774 -4.53125,47.41423 -95.375,53.94465 -0.40625,0 0,0.22519 -0.125,0.0751 0.125,0 0,99.18208 64.5,0 0,-9.3077 c 14.26691,0 20.34375,-1.17321 20.34375,-13.43612 l 0,-69.20727 -16.5625,0 0,-9.40779 c 16.15518,-0.16799 31.25982,-3.86797 44.6875,-11.25931 0.41962,-0.33598 0.83038,-0.50758 1.25,-0.67557 1.25885,0 2.09375,0.32535 2.09375,1.50125 l 0,2.85235 0,86.69675 c 0,10.91904 5.24636,12.93571 17.625,12.93571 l 0,9.3077 66.59375,0 0,-99.18208 0.21875,0 -0.21875,-0.1251 0,-0.17515 -0.3125,0 -95.375,-53.94464 -4.53125,-47.41423 z"
       id="rect2985"
       inkscape:connector-curvature="0"
       inkscape:export-filename="/Users/timmorgan/pp/churchio-website/img/logo.png"
       inkscape:export-xdpi="179.22"
       inkscape:export-ydpi="179.22" />
  </g>
  <path
     inkscape:export-ydpi="38.248421"
     inkscape:export-xdpi="38.248421"
     inkscape:export-filename="/Users/timmorgan/Documents/Projects/Personal/churchio-website/img/iologo.png"
     sodipodi:nodetypes="cccccccc"
     inkscape:connector-curvature="0"
     id="path3226"
     d="m 55.282468,429.8025 39.42536,-32.99422 38.866022,33.27382 -24.04664,4e-5 0,156.30311 -30.198102,0 0,-156.58271 z"
     style="fill:#2c3e50;stroke:none;stroke-width:4.17194652999999960;stroke-opacity:1;fill-opacity:1" />
  <path
     inkscape:export-ydpi="38.248421"
     inkscape:export-xdpi="38.248421"
     inkscape:export-filename="/Users/timmorgan/Documents/Projects/Personal/churchio-website/img/iologo.png"
     sodipodi:nodetypes="ssccssscccccccccss"
     inkscape:connector-curvature="0"
     id="path3228"
     d="m 211.31173,429.12973 c -43.45971,0 -78.74549,35.28578 -78.74549,78.74549 0,13.33409 3.39626,25.90053 9.25651,36.89566 l 22.68496,-20.46862 c -1.81972,-5.1501 -2.86822,-10.65302 -2.86822,-16.42704 0,-27.38912 22.28312,-49.67224 49.67224,-49.67224 27.38912,0 49.54187,22.28312 49.54187,49.67224 0,26.59887 -20.90337,48.18373 -47.19515,49.4115 -48.13988,0.10179 45.54986,0.0208 -8.34389,0 l -15.97251,0 -0.0375,-16.22508 -31.06728,30.42275 31.25168,32.39129 -0.14686,-17.51571 18.71035,0 c 2.41647,-0.008 3.74232,0.008 5.60605,0 42.36616,-1.24441 76.2684,-35.81391 76.2684,-78.48475 0,-43.45971 -35.15541,-78.74549 -78.61512,-78.74549 z"
     style="fill:#2c3e50;stroke:none;stroke-width:4.17194652999999960;stroke-opacity:1;fill-opacity:1" />
</svg>
